<?xml version="1.0" ?><svg id="Layer_1" style="enable-background:new 0 0 74 74;" version="1.1" viewBox="0 0 74 74" xml:space="preserve" xmlns="http://www.w3.org/2000/svg" xmlns:xlink="http://www.w3.org/1999/xlink"><style type="text/css">
	.st0{fill:#000000;}
</style><path class="st0" d="M71,57.6h-3.7L52.8,39.3v-9.7l14.9-5.3c0.8-0.3,1.3-1,1.3-1.9s-0.5-1.6-1.3-1.9l-14.9-5.3v-1c0-1.1-0.9-2-2-2  s-2,0.9-2,2v25l-7,8.8L27.3,29.7c-0.8-1-2.4-1-3.1,0L1.4,58.4c-0.7,0.9-0.5,2.1,0.3,2.8c0.4,0.3,0.8,0.4,1.2,0.4  c0.6,0,1.2-0.3,1.6-0.8l21.1-26.7l13.6,17.2l-5,6.3H12.9c-1.1,0-2,0.9-2,2s0.9,2,2,2H71c1.1,0,2-0.9,2-2S72.1,57.6,71,57.6z   M61,22.5l-8.2,2.9v-5.8L61,22.5z M50.8,43.3l11.4,14.4H39.4L50.8,43.3z"/></svg>
